<svg xmlns:xlink="http://www.w3.org/1999/xlink" xmlns="http://www.w3.org/2000/svg" width="960" height="960" viewBox="0 0 960 960" fill="none">
<g clip-path="url(#clip0_46_7729)">
<g clip-path="url(#clip1_46_7729)">
<path fill-rule="evenodd" clip-rule="evenodd" d="M552.22 385.814C558.502 354.26 559.998 327.504 550.02 296.927C540.055 266.338 524.97 237.715 509.963 209.274C506.81 203.29 502.73 196.624 496.041 195.624C487.67 194.375 481.266 202.647 476.876 209.892C466.02 227.853 455.165 245.81 444.309 263.763C440.646 269.822 436.863 276.35 437.209 283.422C437.513 289.385 440.668 294.553 443.837 299.746C445.293 302.132 446.753 304.524 447.941 307.001C450.497 312.346 451.812 318.201 451.787 324.127L451.639 324.227C458.578 334.812 464.226 346.144 470.069 357.869C470.689 359.114 471.312 360.363 471.939 361.617C485.503 390.426 499.635 418.653 513.953 447.103C525.105 437.163 530.756 430.807 538.088 420.693C545.52 410.468 549.76 398.214 552.22 385.814ZM521.103 257.7C520.546 256.84 519.398 256.594 518.538 257.151C517.678 257.708 517.433 258.856 517.989 259.716C537.859 290.399 545.61 327.374 539.737 363.455C539.573 364.466 540.259 365.418 541.27 365.583C542.281 365.747 543.234 365.061 543.398 364.05C549.419 327.062 541.472 289.156 521.103 257.7Z" fill="white"/>
<path fill-rule="evenodd" clip-rule="evenodd" d="M353.601 326.131C349.842 317.723 345.811 309.451 341.434 301.315C340.111 298.793 338.727 296.283 337.317 293.801C332.792 285.801 327.808 277.84 320.724 271.991C313.64 266.142 304.018 262.68 295.118 264.955C285.029 267.552 277.845 277.022 275.162 287.087C272.479 297.152 273.527 307.81 274.927 318.122C275.595 323.046 276.337 327.962 277.153 332.872C278.587 341.557 280.269 350.19 282.197 358.772C293.841 410.949 314.357 461.161 344.241 505.425C352.624 517.814 364.914 530.771 381.581 527.433C392.939 525.17 401.253 510.012 402.539 499.539C403.701 490.118 401.389 480.659 399.089 471.448C386.801 422.164 374.286 372.323 353.601 326.131ZM324.312 292.412C323.815 291.516 322.686 291.193 321.79 291.691C320.895 292.188 320.572 293.317 321.069 294.212C352.686 351.163 373.25 413.579 381.678 478.17C381.81 479.186 382.741 479.901 383.756 479.769C384.772 479.636 385.488 478.706 385.355 477.69C376.868 412.635 356.156 349.772 324.312 292.412Z" fill="white"/>
<path fill-rule="evenodd" clip-rule="evenodd" d="M577.322 809.128C586.452 788.298 592.552 766.268 595.435 743.709C596.4 736.245 597.045 728.76 597.369 721.255C597.53 717.595 597.616 713.948 597.641 710.288C518.028 702.709 435.719 730.232 376.667 784.14C381.737 790.087 386.967 795.898 392.357 801.573C395.634 805.019 398.96 808.411 402.335 811.749L402.36 812.33C412.143 811.946 421.943 811.588 431.76 811.255L445.101 781.778L466.624 769.859L491.069 778.872L491.378 778.885L491.934 767.238L502.122 743.375L526.27 741.05L551.579 766.36L558.849 794.872L569.965 809.437H569.977L570.336 809.153H570.358C572.675 809.153 575.004 809.153 577.322 809.165V809.128ZM587.022 726.738C586.988 725.715 586.131 724.913 585.107 724.947C584.083 724.981 583.281 725.839 583.315 726.862C584.018 747.899 579.795 768.808 570.985 787.924C570.556 788.854 570.963 789.956 571.893 790.385C572.823 790.813 573.924 790.407 574.353 789.477C583.406 769.836 587.744 748.352 587.022 726.738Z" fill="white"/>
<path fill-rule="evenodd" clip-rule="evenodd" d="M434.131 564.884C446.049 564.883 457.701 568.416 467.611 575.037C477.522 581.657 485.246 591.068 489.808 602.079C494.369 613.09 495.563 625.207 493.238 636.896C490.914 648.586 485.174 659.324 476.747 667.751C468.319 676.179 457.581 681.918 445.892 684.243C434.202 686.568 422.086 685.374 411.075 680.812C400.064 676.25 390.653 668.526 384.032 658.615C377.412 648.705 373.878 637.054 373.88 625.135C373.882 609.156 380.231 593.833 391.529 582.534C402.828 571.235 418.152 564.886 434.131 564.884ZM459.865 582.829C460.671 581.727 462.219 581.487 463.321 582.294C472.553 589.05 479.279 598.682 482.443 609.675C485.607 620.669 485.031 632.402 480.803 643.032C480.299 644.301 478.861 644.921 477.592 644.417C476.322 643.912 475.703 642.474 476.207 641.205C480.03 631.593 480.551 620.984 477.69 611.043C474.829 601.103 468.747 592.394 460.4 586.285C459.298 585.479 459.058 583.931 459.865 582.829ZM412.581 590.754C412.642 590.074 412.14 589.473 411.46 589.412C410.78 589.352 410.179 589.854 410.118 590.534L409.267 600.038L402.409 595.708L401.759 595.298L401.104 595.698L393.249 600.498C392.666 600.854 392.482 601.615 392.838 602.198C393.195 602.781 393.956 602.965 394.538 602.609L401.738 598.209L409.019 602.807L407.5 619.772L407.413 620.74L408.333 621.053L414.34 623.098L411.28 631.515L391.384 637.017L390.23 637.336L390.512 638.5L394.003 652.901C394.164 653.565 394.832 653.973 395.496 653.812C396.16 653.651 396.567 652.982 396.407 652.319L393.198 639.082L412.553 633.729L413.168 633.559L413.386 632.96L416.682 623.895L427.864 627.701L426.485 636.758C426.424 636.921 426.399 637.092 426.409 637.261L424.964 646.751C424.861 647.426 425.325 648.057 426 648.159C426.675 648.262 427.306 647.798 427.409 647.123L428.598 639.314L436.121 644.33L436.905 644.852L437.616 644.235L444.161 638.562C444.677 638.115 444.733 637.334 444.286 636.818C443.839 636.302 443.058 636.246 442.542 636.694L436.709 641.749L429.009 636.616L430.465 627.05L430.621 626.027L429.641 625.694L410.05 619.025L410.534 613.612L431.116 611.512L432.446 611.376L432.207 610.061L430.99 610.282C432.207 610.061 432.207 610.06 432.207 610.06L432.207 610.06L432.206 610.058L432.205 610.05L432.199 610.019L432.177 609.897L432.092 609.434C432.019 609.034 431.913 608.458 431.783 607.759C431.524 606.359 431.169 604.461 430.787 602.467C430.029 598.514 429.144 594.081 428.688 592.486C428.501 591.829 427.816 591.449 427.16 591.637C426.503 591.824 426.123 592.509 426.31 593.165C426.728 594.627 427.589 598.922 428.358 602.933C428.739 604.92 429.093 606.813 429.352 608.209C429.419 608.571 429.48 608.9 429.533 609.188L410.759 611.103L412.581 590.754Z" fill="#171717"/>
<path d="M728.461 761.711L746.155 812.244C730.44 811.638 714.733 811.127 699.034 810.71L684.534 791.088L691.223 772.468L678.423 754.144L688.945 751.708L713.624 746L728.461 761.711Z" fill="white"/>
<path d="M684.531 791.088L699.031 810.71C684.986 810.352 670.937 810.06 656.882 809.833L657.463 773.346L678.42 754.146L691.22 772.47L684.531 791.088Z" fill="#171717"/>
<path d="M689.328 882.584L695.325 898.014L671.722 897.569L672.018 883.017L693.841 866.733L689.328 882.584Z" fill="#171717"/>
<path d="M644.089 768.4L649.294 809.709C646.933 809.672 644.559 809.647 642.194 809.622L642.417 797.27L623.217 782.87L617.542 760.182L595.434 743.712C596.398 736.246 597.041 728.761 597.363 721.259L597.536 721.271L615.001 698.863L633.04 722.726L631 749.198L644.089 768.4Z" fill="#171717"/>
<path d="M617.542 760.178L605.981 776.978L609.9 799.233L607.292 809.051V809.273C597.302 809.211 587.311 809.174 577.321 809.162V809.125C586.451 788.295 592.551 766.265 595.434 743.706L617.542 760.178Z" fill="#171717"/>
<path d="M589.4 830.654L599.575 855.383L594.63 875.462L594.691 875.771L579.791 878.949C579.791 878.949 563.211 877.49 561.468 877.49C559.725 877.49 570.197 849.275 570.197 849.275L580.954 847.816L589.4 830.654Z" fill="#171717"/>
<path d="M557.847 820.107L562.125 826.945L544.234 831.087L531.795 814.951L515.87 803.378L533.972 796.838L546.843 802.513L557.847 820.107Z" fill="white"/>
<path d="M531.795 814.951L544.234 831.087L505.175 826.289L507.042 822.283L515.87 803.378L531.795 814.951Z" fill="#171717"/>
<path d="M514.337 887.962L526.553 915.893L474.19 919.973L486.703 899.313L478.258 888.259L481.757 870.801L501.243 887.962H514.337Z" fill="white"/>
<path d="M502.121 743.375L514.918 763.739L509.095 792.547L488.15 823.965L467.786 815.236L491.068 785.562L491.377 778.885L491.933 767.238L502.121 743.375Z" fill="#171717"/>
<path d="M478.258 888.259L486.703 899.313L474.19 919.973C474.19 919.973 449.746 909.5 448.881 908.92L469.245 876.043L481.757 870.801L478.258 888.259Z" fill="#171717"/>
<path d="M462.506 835.575L472.88 849.126L468.936 858.721L442.118 857.707L447.793 838.95L462.506 835.575Z" fill="#171717"/>
<path d="M468.948 798.359L448.584 816.695L431.138 812.615L431.756 811.255L445.097 781.778L466.623 769.859L457.894 787.305L468.948 798.359Z" fill="#171717"/>
<path d="M414.113 901.786L415.114 913.631L402.836 912.258L394.762 911.17L399.35 902.663L409.167 891.746L414.113 901.786Z" fill="#171717"/>
<path d="M379.27 812.985L379.282 813.27C363.482 813.95 347.701 814.704 331.94 815.532L331.927 815.384L332.36 802.946L335.674 797.654L343.241 785.537L346.541 780.257L353.527 795.75L372.296 803.168L379.27 812.985Z" fill="#171717"/>
<path d="M371.023 840.212L373.99 847.803L362.368 847.581L362.504 840.422L373.249 832.397L371.023 840.212Z" fill="#171717"/>
<path d="M319.34 770.564L321.887 755.158L332.805 777.203L342.833 785.277L343.241 785.537L335.674 797.654L335.414 797.493L317.09 784.177L318.277 777.03L318.895 773.284L319.34 770.564Z" fill="#171717"/>
<path d="M327.785 715.456L286.761 722.875L283.929 755.158L264.505 767.6V804.891L251.523 791.5L251.634 791.389L259.934 728.989C259.934 728.989 281.312 713.706 282.623 713.274C283.934 712.842 288.731 683.167 288.731 683.167C288.731 683.167 261.231 652.615 260.367 651.304L286.542 632.98H286.554C298.449 660.651 311.53 687.828 326.8 713.805C327.118 714.356 327.451 714.912 327.785 715.456Z" fill="white"/>
<path d="M310.104 862.949L327.563 881.273L317.523 891.746H293.635L292.658 879.53L277.821 869.057L310.104 862.949Z" fill="white"/>
<path d="M326.475 815.384L326.499 815.817C314.11 816.472 301.737 817.181 289.382 817.943L290.037 810.364L299.637 787.676L312.731 799.236L323.631 802.29L326.475 815.384Z" fill="#171717"/>
<path d="M264.505 804.887V767.6L283.929 755.162L286.761 722.879L299.422 746L297.888 771.742L305.962 781.782L306.162 782.017L299.634 787.68L290.034 810.368L289.379 817.948C281.082 818.455 272.789 818.989 264.502 819.548L264.505 804.887Z" fill="#171717"/>
<path d="M292.658 879.53L293.635 891.746H278.687L266.904 886.948L277.821 869.057L292.658 879.53Z" fill="#171717"/>
<path d="M288.727 683.161C288.727 683.161 283.927 712.835 282.619 713.268C281.311 713.701 259.93 728.983 259.93 728.983L251.63 791.383L251.519 791.494L244.211 783.965L232.511 789.38L232.424 789.195L242.019 727.67L271.26 701.915L260.36 651.296C261.228 652.609 288.727 683.161 288.727 683.161Z" fill="#171717"/>
<path d="M253.81 552.681C235.659 553.881 142.01 530.363 119.41 461.47C110.249 433.551 96.5741 402.554 91.3311 373.87C90.3921 368.726 89.5751 363.17 91.8501 358.476C95.4611 351.021 105.031 348.968 113.302 348.449C133.394 347.2 149.74 355.2 168.942 361.283C177.98 364.152 190.975 368.183 196.403 375.947C202.239 384.293 202.449 395.161 203.364 405.3C204.279 415.439 203.055 426.591 211.438 432.378L212.006 432.303C213.849 445.803 218.188 459.023 223.006 471.659C227.382 483.12 232.031 494.483 236.594 505.871C238.733 511.2 240.86 516.541 242.924 521.895C246.831 532.046 250.714 542.212 254.571 552.395L253.81 552.681Z" fill="white"/>
<path d="M214.541 797.7L224.729 822.416C214.652 823.184 204.575 824 194.499 824.864L214.541 797.7Z" fill="#171717"/>
<path d="M189.664 825.2L189.677 825.287C182.258 825.931 174.84 826.597 167.421 827.287L169.152 802.064L185.3 774.36L187.265 799.669L189.664 825.2Z" fill="#171717"/>
<path d="M276.648 332.956C246.603 351.465 213.392 375.835 211.216 414.275C210.979 418.623 211.057 422.983 211.451 427.32C211.599 428.989 211.785 430.646 212.007 432.302C213.85 445.802 218.189 459.021 223.007 471.658C227.383 483.119 232.032 494.482 236.595 505.87C238.734 511.199 240.861 516.54 242.925 521.894C246.832 532.045 250.714 542.211 254.572 552.394C259.123 564.4 263.723 576.389 268.372 588.362C272.438 598.773 276.601 609.15 280.86 619.495C282.726 623.996 284.622 628.489 286.547 632.972C298.442 660.644 311.523 687.82 326.793 713.797C327.115 714.354 327.448 714.91 327.782 715.454C333.456 725.049 339.441 734.455 345.735 743.67C352.783 753.981 360.218 764 368.04 773.727C370.847 777.239 373.72 780.709 376.658 784.138C381.724 790.085 386.954 795.896 392.348 801.571C395.624 805.009 398.95 808.401 402.326 811.747" stroke="#171717" stroke-width="3.709" stroke-miterlimit="10" stroke-linecap="round"/>
<path d="M577.321 809.128C586.451 788.298 592.551 766.268 595.434 743.709C596.399 736.242 597.042 728.758 597.363 721.255C597.524 717.595 597.61 713.948 597.635 710.288C597.635 707.088 597.594 703.882 597.512 700.669C597.019 684.721 595.382 668.829 592.612 653.116C585.849 613.933 572.817 575.11 557.251 538.016C549.857 520.409 541.894 503.186 533.758 486.494C529.158 477.283 524.558 468.129 519.958 459.033C517.958 455.039 515.955 451.062 513.949 447.101C499.631 418.651 485.499 390.424 471.935 361.615C465.407 348.558 459.311 335.934 451.635 324.225C451.091 323.397 450.547 322.581 449.978 321.765C444.9 314.219 438.995 307.264 432.372 301.03C406.407 277.538 369.326 291.139 341.432 301.314H341.42" stroke="#171717" stroke-width="3.709" stroke-miterlimit="10" stroke-linecap="round"/>
<path d="M570.335 809.153C572.659 809.153 574.996 809.153 577.321 809.165C587.311 809.177 597.301 809.214 607.292 809.276C618.926 809.35 630.559 809.466 642.192 809.622C644.553 809.647 646.927 809.672 649.292 809.709C651.827 809.746 654.361 809.783 656.884 809.833C670.942 810.055 684.992 810.348 699.033 810.711C714.736 811.131 730.443 811.642 746.154 812.244C792.94 814.074 839.726 816.868 886.612 821.022" stroke="#171717" stroke-width="3.709" stroke-miterlimit="10" stroke-linecap="round"/>
<path d="M73.4521 837.368C104.785 833.535 136.108 830.176 167.421 827.291C174.839 826.586 182.258 825.919 189.677 825.291C191.284 825.143 192.891 825.007 194.499 824.87C204.575 824.004 214.652 823.188 224.729 822.422C237.984 821.396 251.242 820.436 264.505 819.541C272.801 818.985 281.093 818.454 289.382 817.947C301.746 817.181 314.118 816.472 326.499 815.82C328.317 815.72 330.122 815.62 331.94 815.536C347.704 814.707 363.485 813.953 379.282 813.273C386.961 812.951 394.652 812.638 402.354 812.333C412.134 811.95 421.934 811.592 431.754 811.258" stroke="#171717" stroke-width="3.709" stroke-miterlimit="10" stroke-linecap="round"/>
<path d="M513.521 447.486C513.669 447.362 513.805 447.226 513.954 447.102C525.106 437.162 530.754 430.802 538.089 420.692C545.52 410.467 549.761 398.214 552.221 385.813C558.502 354.259 559.998 327.503 550.021 296.926C540.044 266.349 524.971 237.714 509.961 209.276C506.808 203.292 502.728 196.627 496.039 195.626C487.668 194.377 481.264 202.649 476.874 209.894C466.019 227.859 455.163 245.816 444.307 263.765C440.647 269.824 436.864 276.352 437.207 283.424C437.652 292.129 444.168 299.139 447.939 307.003C450.495 312.349 451.81 318.203 451.784 324.128" stroke="#171717" stroke-width="3.709" stroke-miterlimit="10" stroke-linecap="round"/>
<path d="M211.438 432.377C203.055 426.59 204.279 415.438 203.364 405.299C202.449 395.16 202.239 384.292 196.403 375.946C190.975 368.181 177.98 364.146 168.942 361.282C149.742 355.199 133.394 347.199 113.303 348.448C105.031 348.967 95.461 351.02 91.851 358.475C89.575 363.175 90.392 368.725 91.331 373.869C96.574 402.554 110.249 433.551 119.41 461.469C142.01 530.362 235.659 553.879 253.81 552.68" stroke="#171717" stroke-width="3.709" stroke-miterlimit="10" stroke-linecap="round"/>
<path d="M282.2 358.772C293.847 410.949 314.36 461.161 344.244 505.425C352.627 517.814 364.917 530.771 381.584 527.433C392.947 525.17 401.256 510.012 402.542 499.539C403.704 490.118 401.392 480.659 399.092 471.448C386.802 422.164 374.292 372.323 353.604 326.13C349.845 317.723 345.814 309.451 341.437 301.315C340.114 298.793 338.73 296.283 337.32 293.798C332.795 285.798 327.82 277.823 320.727 271.987C313.634 266.151 304.027 262.677 295.121 264.952C285.032 267.552 277.848 277.02 275.165 287.084C272.482 297.148 273.533 307.807 274.93 318.118C275.597 323.039 276.339 327.956 277.156 332.869C278.589 341.549 280.27 350.183 282.2 358.772Z" stroke="#171717" stroke-width="3.709" stroke-miterlimit="10" stroke-linecap="round"/>
<path d="M354.06 325.933C384.908 315.935 417.912 314.618 449.46 322.125" stroke="#171717" stroke-width="3.709" stroke-miterlimit="10" stroke-linecap="round"/>
<path d="M211.5 427.32C232.075 402.42 253.094 377.689 281.63 358.896" stroke="#171717" stroke-width="3.709" stroke-miterlimit="10" stroke-linecap="round"/>
<path d="M376.105 784.647C376.29 784.473 376.476 784.313 376.661 784.14C435.713 730.232 518.022 702.709 597.635 710.288C597.722 710.3 597.796 710.3 597.882 710.313" stroke="#171717" stroke-width="3.709" stroke-miterlimit="10" stroke-linecap="round"/>
<path d="M494.394 625.135C494.395 637.053 490.863 648.704 484.242 658.614C477.622 668.524 468.212 676.249 457.202 680.811C446.192 685.373 434.076 686.568 422.387 684.244C410.698 681.92 399.96 676.182 391.532 667.756C383.104 659.329 377.363 648.593 375.037 636.904C372.711 625.216 373.903 613.1 378.462 602.088C383.022 591.077 390.745 581.665 400.653 575.043C410.562 568.421 422.212 564.885 434.13 564.884C450.111 564.883 465.438 571.231 476.739 582.53C488.041 593.829 494.391 609.154 494.394 625.135Z" stroke="#171717" stroke-width="3.709" stroke-miterlimit="10" stroke-linecap="round"/>
<path d="M506.869 625.135C506.871 639.52 502.606 653.583 494.615 665.545C486.625 677.506 475.266 686.83 461.976 692.336C448.687 697.842 434.062 699.284 419.953 696.479C405.844 693.674 392.884 686.748 382.711 676.577C372.538 666.406 365.61 653.447 362.802 639.338C359.994 625.229 361.434 610.605 366.937 597.314C372.441 584.024 381.763 572.663 393.723 564.67C405.683 556.677 419.745 552.41 434.13 552.409C443.682 552.408 453.14 554.288 461.965 557.942C470.79 561.597 478.808 566.953 485.563 573.707C492.317 580.46 497.675 588.478 501.331 597.302C504.987 606.126 506.869 615.584 506.869 625.135V625.135Z" stroke="#171717" stroke-width="3.709" stroke-miterlimit="10" stroke-linecap="round"/>
<path d="M519.58 459.219C499.429 458.308 479.548 464.133 463.075 475.775" stroke="#171717" stroke-width="3.709" stroke-miterlimit="10" stroke-linecap="round"/>
<path d="M463.075 475.775C473.666 502.18 486.025 527.841 500.069 552.582C500.069 552.594 500.081 552.594 500.081 552.607" stroke="#171717" stroke-width="3.709" stroke-miterlimit="10" stroke-linecap="round"/>
<path d="M499.735 552.767L500.069 552.582C517.431 542.719 537.128 537.71 557.093 538.082" stroke="#171717" stroke-width="3.709" stroke-miterlimit="10" stroke-linecap="round"/>
<path d="M268.214 588.611C268.264 588.525 268.314 588.451 268.375 588.364C276.325 575.184 292.535 560.619 307.421 556.625C307.582 556.588 307.743 556.538 307.904 556.501" stroke="#171717" stroke-width="3.709" stroke-miterlimit="10" stroke-linecap="round"/>
<path d="M307.372 556.44C294.142 531.315 283.756 503.31 270.539 478.174C270.489 478.087 270.452 478.001 270.403 477.914" stroke="#171717" stroke-width="3.709" stroke-miterlimit="10" stroke-linecap="round"/>
<path d="M270.835 478.063L270.535 478.174C258.109 482.786 243.605 494 237.3 505.585" stroke="#171717" stroke-width="3.709" stroke-miterlimit="10" stroke-linecap="round"/>
<path d="M592.875 653.153L592.615 653.116C580.847 651.538 568.888 652.171 557.352 654.983C557.117 655.032 556.882 655.083 556.652 655.143" stroke="#171717" stroke-width="3.709" stroke-miterlimit="10" stroke-linecap="round"/>
<path d="M596.794 700.693C584.695 698.377 572.269 698.348 560.159 700.607" stroke="#171717" stroke-width="3.709" stroke-miterlimit="10" stroke-linecap="round"/>
<path d="M559.355 700.607C557.861 685.447 557.193 670.216 557.355 654.983V654.8" stroke="#171717" stroke-width="3.709" stroke-miterlimit="10" stroke-linecap="round"/>
<path d="M502.591 546.56C502.443 546.115 502.291 545.683 502.158 545.25" stroke="#171717" stroke-width="3.709" stroke-miterlimit="10" stroke-linecap="round"/>
<path d="M468.787 476.641C468.802 476.667 468.819 476.691 468.837 476.715C468.861 476.74 468.874 476.764 468.898 476.789" stroke="#171717" stroke-width="3.709" stroke-miterlimit="10" stroke-linecap="round"/>
<path d="M470.16 478.569C469.628 477.815 469.01 476.95 468.837 476.715" stroke="#171717" stroke-width="3.709" stroke-miterlimit="10" stroke-linecap="round"/>
<path d="M561.111 660.448C561 659.867 560.876 659.273 560.753 658.692" stroke="#171717" stroke-width="3.709" stroke-miterlimit="10" stroke-linecap="round"/>
<path d="M299.582 553.138C299.137 552.273 299.15 552.298 298.705 551.42" stroke="#171717" stroke-width="3.709" stroke-miterlimit="10" stroke-linecap="round"/>
<path d="M268.066 485.765C267.633 484.752 267.707 484.789 267.275 483.775" stroke="#171717" stroke-width="3.709" stroke-miterlimit="10" stroke-linecap="round"/>
<path d="M368.142 773.704L368.043 773.729L346.542 780.257L343.241 785.537L335.674 797.654L332.36 802.946L331.927 815.384" stroke="#171717" stroke-width="3.709" stroke-miterlimit="10" stroke-linecap="round"/>
<path d="M345.887 743.597L345.738 743.671L321.887 755.158L319.34 770.564L318.895 773.284L318.277 777.03L317.09 784.177L335.414 797.493" stroke="#171717" stroke-width="3.709" stroke-miterlimit="10" stroke-linecap="round"/>
<path d="M319.489 770.44L319.34 770.564L306.16 782.013L299.632 787.676L290.037 810.364L289.382 817.944V818.005" stroke="#171717" stroke-width="3.709" stroke-miterlimit="10" stroke-linecap="round"/>
<path d="M327.785 715.456L286.761 722.875L283.929 755.158L264.505 767.596V804.887V819.539V819.749" stroke="#171717" stroke-width="3.709" stroke-miterlimit="10" stroke-linecap="round"/>
<path d="M224.791 822.58L224.729 822.419L214.541 797.703L222.504 794.019L232.519 789.382L244.215 783.967L251.523 791.496L264.505 804.887L264.728 805.122" stroke="#171717" stroke-width="3.709" stroke-miterlimit="10" stroke-linecap="round"/>
<path d="M214.541 797.703L194.499 824.868L194.251 825.201" stroke="#171717" stroke-width="3.709" stroke-miterlimit="10" stroke-linecap="round"/>
<path d="M222.392 793.784L209.744 773.049L185.3 774.36L169.152 802.068L167.421 827.291L167.408 827.377" stroke="#171717" stroke-width="3.709" stroke-miterlimit="10" stroke-linecap="round"/>
<path d="M189.664 825.201L187.265 799.669L185.3 774.36" stroke="#171717" stroke-width="3.709" stroke-miterlimit="10" stroke-linecap="round"/>
<path d="M299.632 787.676L312.726 799.236L323.631 802.29L326.475 815.384" stroke="#171717" stroke-width="3.709" stroke-miterlimit="10" stroke-linecap="round"/>
<path d="M321.887 755.158L332.805 777.203L342.833 785.277" stroke="#171717" stroke-width="3.709" stroke-miterlimit="10" stroke-linecap="round"/>
<path d="M346.542 780.257L353.528 795.75L372.297 803.168L379.27 812.985" stroke="#171717" stroke-width="3.709" stroke-miterlimit="10" stroke-linecap="round"/>
<path d="M286.761 722.875L299.422 745.996L297.888 771.738L305.962 781.778" stroke="#171717" stroke-width="3.709" stroke-miterlimit="10" stroke-linecap="round"/>
<path d="M595.286 743.597L595.434 743.709L617.542 760.178L623.217 782.866L642.418 797.271L642.196 809.622V809.709" stroke="#171717" stroke-width="3.709" stroke-miterlimit="10" stroke-linecap="round"/>
<path d="M617.542 760.178L605.981 776.981L609.9 799.236L607.292 809.054" stroke="#171717" stroke-width="3.709" stroke-miterlimit="10" stroke-linecap="round"/>
<path d="M656.885 810.006V809.833L657.466 773.346L678.423 754.144L688.945 751.708L713.624 745.996L728.461 761.711L746.155 812.244L746.488 813.196" stroke="#171717" stroke-width="3.709" stroke-miterlimit="10" stroke-linecap="round"/>
<path d="M678.423 754.144L691.22 772.468L684.531 791.088L699.034 810.71L699.368 811.168" stroke="#171717" stroke-width="3.709" stroke-miterlimit="10" stroke-linecap="round"/>
<path d="M688.896 751.523L679.004 721.564L653.398 711.673L644.088 697.12L614.995 698.863L597.536 721.267" stroke="#171717" stroke-width="3.709" stroke-miterlimit="10" stroke-linecap="round"/>
<path d="M614.995 698.863L633.034 722.726L630.994 749.198L644.088 768.4L649.293 809.709L649.33 810.006" stroke="#171717" stroke-width="3.709" stroke-miterlimit="10" stroke-linecap="round"/>
<path d="M481.757 870.8L469.245 876.042L448.881 908.92C449.746 909.501 474.19 919.973 474.19 919.973L526.553 915.893L514.337 887.962H501.243L481.757 870.8Z" stroke="#171717" stroke-width="3.709" stroke-miterlimit="10" stroke-linecap="round"/>
<path d="M481.757 870.801L478.258 888.259L486.703 899.313L474.19 919.973" stroke="#171717" stroke-width="3.709" stroke-miterlimit="10" stroke-linecap="round"/>
<path d="M491.068 785.562L467.786 815.236L488.15 823.965L506.919 822.222" stroke="#171717" stroke-width="3.709" stroke-miterlimit="10" stroke-linecap="round"/>
<path d="M502.121 743.375L514.918 763.739L509.095 792.547L488.15 823.965" stroke="#171717" stroke-width="3.709" stroke-miterlimit="10" stroke-linecap="round"/>
<path d="M491.068 778.873L466.623 769.859L445.097 781.778L431.756 811.255L431.138 812.615L448.584 816.695L467.786 815.236" stroke="#171717" stroke-width="3.709" stroke-miterlimit="10" stroke-linecap="round"/>
<path d="M466.623 769.859L457.894 787.305L468.948 798.359L448.584 816.695" stroke="#171717" stroke-width="3.709" stroke-miterlimit="10" stroke-linecap="round"/>
<path d="M544.234 831.087L562.125 826.945L557.847 820.107L546.843 802.513L533.972 796.838L515.87 803.378L507.042 822.283L505.175 826.289L544.234 831.087Z" stroke="#171717" stroke-width="3.709" stroke-miterlimit="10" stroke-linecap="round"/>
<path d="M515.87 803.378L531.795 814.951L544.234 831.087" stroke="#171717" stroke-width="3.709" stroke-miterlimit="10" stroke-linecap="round"/>
<path d="M589.4 830.654L622.56 836.181L640.884 868.476L613.831 871.676L597.041 875.261L594.691 875.768L579.791 878.946C579.791 878.946 563.211 877.487 561.468 877.487C559.725 877.487 570.197 849.272 570.197 849.272L580.954 847.813L589.4 830.654Z" stroke="#171717" stroke-width="3.709" stroke-miterlimit="10" stroke-linecap="round"/>
<path d="M589.401 830.654L599.576 855.383L594.631 875.462" stroke="#171717" stroke-width="3.709" stroke-miterlimit="10" stroke-linecap="round"/>
<path d="M409.167 891.746L399.35 902.663L394.762 911.17L402.836 912.258L415.114 913.631L434.266 915.757L438.841 906.805L432.51 890.658L409.167 891.746Z" stroke="#171717" stroke-width="3.709" stroke-miterlimit="10" stroke-linecap="round"/>
<path d="M693.841 866.733L672.018 883.017L671.722 897.569L695.325 898.014L732.529 898.732L739.515 893.786L733.11 884.476L693.841 866.733Z" stroke="#171717" stroke-width="3.709" stroke-miterlimit="10" stroke-linecap="round"/>
<path d="M277.821 869.057L266.904 886.948L278.687 891.746H293.635H317.523L327.563 881.273L310.104 862.949L277.821 869.057Z" stroke="#171717" stroke-width="3.709" stroke-miterlimit="10" stroke-linecap="round"/>
<path d="M557.538 820.181L557.847 820.107L574.848 815.817L569.976 809.437H569.964L558.848 794.872L551.578 766.36L526.269 741.05L502.121 743.375L491.933 767.238L491.377 778.885L491.068 785.562" stroke="#171717" stroke-width="3.709" stroke-miterlimit="10" stroke-linecap="round"/>
<path d="M563.065 696.687C562.929 696.255 562.78 695.809 562.632 695.377" stroke="#171717" stroke-width="3.709" stroke-miterlimit="10" stroke-linecap="round"/>
<path d="M286.539 632.974L260.364 651.298L271.269 701.917L242.028 727.672L232.433 789.197" stroke="#171717" stroke-width="3.709" stroke-miterlimit="10" stroke-linecap="round"/>
<path d="M260.363 651.3C261.228 652.611 288.727 683.163 288.727 683.163C288.727 683.163 283.927 712.837 282.619 713.27C281.311 713.703 259.93 728.985 259.93 728.985L251.63 791.385" stroke="#171717" stroke-width="3.709" stroke-miterlimit="10" stroke-linecap="round"/>
<path d="M462.506 835.575L447.793 838.95L442.118 857.707L468.936 858.721L482.697 859.24L490.771 854.22V841.782L473.535 833.053L462.506 835.575Z" stroke="#171717" stroke-width="3.709" stroke-miterlimit="10" stroke-linecap="round"/>
<path d="M462.407 835.451L462.506 835.575L472.88 849.126L468.936 858.721L468.812 859.018" stroke="#171717" stroke-width="3.709" stroke-miterlimit="10" stroke-linecap="round"/>
<path d="M373.249 832.397L362.504 840.422L362.368 847.581L373.99 847.803L392.302 848.162L395.739 845.726L392.586 841.139L373.249 832.397Z" stroke="#171717" stroke-width="3.709" stroke-miterlimit="10" stroke-linecap="round"/>
<path d="M373.249 832.397L371.023 840.212L373.99 847.803L374.04 847.939" stroke="#171717" stroke-width="3.709" stroke-miterlimit="10" stroke-linecap="round"/>
<path d="M277.821 869.057L292.658 879.53L293.635 891.746" stroke="#171717" stroke-width="3.709" stroke-miterlimit="10" stroke-linecap="round"/>
<path d="M693.841 866.733L689.328 882.584L695.325 898.014L695.436 898.299" stroke="#171717" stroke-width="3.709" stroke-miterlimit="10" stroke-linecap="round"/>
<path d="M409.167 891.746L414.113 901.786L415.114 913.631L415.126 913.717" stroke="#171717" stroke-width="3.709" stroke-miterlimit="10" stroke-linecap="round"/>
<path d="M623.517 39.9731L620.005 43.6231C618.852 44.8561 617.621 46.0121 616.557 47.3231L613.268 51.1651C612.727 51.8101 612.158 52.4311 611.64 53.0961L610.108 55.1061C594.199 75.6298 583.599 99.7621 579.249 125.363C577.088 138.007 576.53 150.873 577.588 163.657C578.815 176.378 581.416 188.928 585.345 201.089C589.304 213.247 594.309 225.039 600.305 236.332C606.26 247.692 612.791 258.739 619.873 269.432C634.019 290.932 649.673 311.453 664.883 332.672C676.454 352.289 687.163 372.538 695.55 393.679C703.903 414.772 709.941 436.909 711.087 459.165C712.156 464.648 712.93 470.184 713.407 475.75C713.843 481.368 713.943 487.007 713.707 492.637C713.116 504.061 711.1 515.366 707.707 526.29L706.845 526.79C706.291 527.115 705.488 527.596 704.427 528.181C702.307 529.354 699.462 531.069 696.08 533.044C689.337 537.052 680.687 542.009 673.123 547.956C665.553 553.931 658.947 561.087 656.442 570.338C653.951 579.563 655.587 590.905 665.075 604.413C669.835 611.154 671.801 617.834 671.808 624.229C671.805 625.823 671.676 627.415 671.42 628.988C671.201 630.536 670.873 632.067 670.438 633.569C669.524 636.64 668.275 639.6 666.713 642.397C660.381 653.917 649.162 664.258 637.871 674.974C632.285 680.338 626.544 685.82 621.415 691.488C616.541 696.809 612.078 702.492 608.063 708.488C607.163 709.862 606.226 711.21 605.428 712.519C604.663 713.86 603.94 715.127 603.258 716.319C602.564 717.558 601.917 718.713 601.315 719.784C600.75 720.873 600.294 721.884 599.843 722.816L597.027 728.816C593.179 719.012 590.696 708.725 589.648 698.245C588.582 687.48 588.645 676.632 589.836 665.88C590.046 663.856 590.394 661.848 590.879 659.871C591.548 656.988 592.378 654.145 593.367 651.356C595.987 643.804 599.151 636.451 602.833 629.356C607.232 620.789 612.089 612.465 617.381 604.419C618.738 602.298 620.13 600.203 621.556 598.133C622.974 596.043 624.41 593.933 625.81 591.961C628.637 587.913 631.465 583.97 634.248 580.094C645.448 564.651 655.326 550.703 661.518 540.394C664.677 535.249 666.966 531.044 668.498 528.12C669.311 526.658 669.854 525.52 670.222 524.739L670.799 523.552C674.37 518.005 677.488 512.179 680.122 506.131C680.442 505.394 680.809 504.659 681.1 503.917L681.937 501.687C682.475 500.194 683.144 498.715 683.575 497.187C684.048 495.666 684.592 494.15 684.969 492.587C685.389 491.036 685.834 489.481 686.15 487.887C689.017 474.551 689.596 460.825 687.862 447.295C685.951 432.534 682.408 418.03 677.298 404.049C671.957 389.298 665.656 374.913 658.436 360.985C654.88 354.81 651.189 348.677 647.363 342.585L641.533 333.395L635.618 324.155C627.704 311.811 619.712 299.348 612.072 286.548C604.297 273.709 597.183 260.481 590.757 246.916C584.261 233.189 579.034 218.896 575.14 204.216C571.275 189.453 569.298 174.26 569.255 158.999C569.197 157.099 569.32 155.192 569.415 153.292C569.51 151.392 569.591 149.492 569.715 147.6L570.322 141.941L570.622 139.117L571.075 136.317L571.999 130.722C572.347 128.866 572.799 127.03 573.199 125.187C573.932 121.487 575.052 117.881 576.051 114.258C576.512 112.435 577.221 110.683 577.795 108.898C578.421 107.127 578.956 105.33 579.659 103.589C581.095 100.121 582.351 96.5891 584.017 93.2351L586.394 88.1591L589.031 83.2171L590.349 80.7521C590.804 79.9401 591.307 79.1521 591.785 78.3521L594.679 73.5771C602.679 61.0866 612.385 49.7758 623.517 39.9731Z" fill="#171717"/>
<path d="M401 812.521L390.918 807.653C387.561 806.018 384.284 804.228 380.961 802.522C368.246 795.752 355.871 788.36 343.834 780.346C307.68 756.102 275.396 726.535 248.075 692.646C238.77 681.364 230.367 669.368 222.943 656.768C215.616 644.008 209.579 630.161 206.594 615.278C205.059 607.807 204.421 600.179 204.694 592.556C204.705 590.647 204.824 588.741 205.048 586.845L205.314 583.993C205.38 583.041 205.495 582.093 205.659 581.153C206.215 577.387 206.962 573.651 207.897 569.96C211.497 555.143 218.059 541.445 225.48 528.592C240.387 507.415 258.154 489.477 274.638 470.718C291.116 451.902 306.761 432.182 319.572 410.264C324.415 398.587 328.197 386.498 330.872 374.143C332.148 368.028 333.07 361.844 333.633 355.622C334.212 349.471 334.354 343.286 334.058 337.114C334.058 337.114 334.313 336.835 334.794 336.304C335.275 335.773 335.952 334.981 336.745 333.943C337.538 332.905 338.508 331.62 339.57 330.093C340.614 328.566 341.67 326.799 342.821 324.793C344.027 322.629 345.121 320.405 346.1 318.129C347.185 315.554 348.133 312.923 348.94 310.248C349.4 308.833 349.761 307.402 350.081 305.94C350.401 304.478 350.716 302.972 350.991 301.44C351.506 298.348 351.824 295.226 351.944 292.093C352.41 279.415 349.162 266.767 341.517 258.336C333.833 249.854 321.824 245.502 303.611 247.568C294.505 248.597 286.916 247.015 280.583 243.178C274.251 239.4 269.152 233.205 265.265 225.225C264.303 223.187 263.415 221.13 262.586 218.867C261.723 216.457 260.982 214.005 260.366 211.52C259.087 206.295 258.278 200.966 257.951 195.597C257.272 184.215 258.434 172.799 261.392 161.787C264.191 151.007 268.805 140.783 275.037 131.553C277.823 127.483 280.983 123.682 284.475 120.2C287.499 117.233 290.797 114.559 294.326 112.214C299.261 108.958 304.722 106.581 310.468 105.186C311.977 104.818 313.507 104.544 315.049 104.364L316.649 104.181C312.682 111.57 310.616 119.831 310.638 128.218C310.698 136.238 312.071 144.194 314.7 151.771C315.574 153.932 316.308 157.635 317.4 162.571C318.492 167.507 319.919 173.671 322.088 180.559C323.165 183.999 324.41 187.609 325.84 191.291C326.201 192.211 326.552 193.142 326.947 194.064C327.342 194.986 327.694 195.901 328.163 196.958C329.076 199.015 329.89 201.053 330.884 203.2C334.676 211.7 339.16 220.878 343.757 230.445C348.354 240.012 353.03 249.983 357.083 259.916C360.947 269.256 364.235 278.825 366.929 288.567L368.55 294.985C369.05 297.03 369.407 299.057 369.794 300.913C370.594 304.613 371.034 307.978 371.429 310.713C371.619 312.084 371.804 313.303 371.929 314.369C372.029 315.441 372.116 316.351 372.185 317.088C372.317 318.563 372.385 319.346 372.385 319.346C372.513 330.783 371.449 342.203 369.211 353.419C367.091 364.175 364.012 374.719 360.011 384.925C356.2 394.658 351.73 404.121 346.634 413.247C341.717 421.991 336.359 430.478 330.579 438.677C319.426 454.321 307.293 469.242 294.253 483.351C287.961 490.285 281.436 497.105 275.241 503.571C269.024 510.085 262.975 516.547 257.201 523.114C252.311 529.225 247.773 535.436 243.588 541.747C239.428 547.932 235.724 554.413 232.507 561.137C231.766 562.798 230.899 564.437 230.242 566.121L228.249 571.166C227.614 572.854 227.149 574.566 226.575 576.266C226.319 577.12 225.984 577.966 225.786 578.83L225.17 581.416C224.331 584.854 223.676 588.334 223.207 591.841C222.989 595.341 222.575 598.866 222.696 602.392C222.831 616.537 226.978 631.048 233.338 644.952C239.707 658.893 248.168 672.303 257.428 685.347C294.933 738.158 344.049 781.664 401 812.521V812.521Z" fill="#171717"/>
<path d="M613.986 411.307C614.448 415.765 615.336 420.168 616.638 424.456C617.898 428.746 619.503 432.926 621.438 436.956C625.266 444.932 629.747 452.396 633.764 459.93C636.651 464.915 639.189 470.094 641.358 475.43C643.454 480.621 644.811 486.081 645.389 491.649C646.203 497.438 646.062 503.32 644.972 509.063C643.82 514.968 642.003 520.723 639.556 526.219C634.934 534.976 629.045 542.975 622.822 550.763C617.306 557.958 611.546 565.046 606.27 572.572C603.392 577.826 600.88 583.273 598.75 588.872C595.36 593.867 592.678 599.306 590.779 605.036C590.001 608.912 589.469 612.834 589.186 616.777C588.941 620.706 588.9 624.644 589.061 628.577C589.249 632.504 589.629 636.413 590.161 640.303C590.733 644.186 591.459 648.04 592.338 651.865C590.84 641.876 590.597 631.739 591.615 621.69C592.688 611.806 595.215 602.075 599.862 593.843C602.866 587.442 606.452 581.33 610.575 575.586C614.675 569.731 619.152 564.053 623.635 558.3C629.442 550.423 635.318 542.338 640.08 533.527C644.838 524.761 648.641 515.265 650.036 505.246C650.357 501.982 650.406 498.697 650.183 495.424C649.917 492.188 649.362 488.983 648.526 485.845C646.824 479.687 644.325 473.778 641.093 468.267C636.805 456.782 630.616 445.854 626.133 434.599C621.321 426.061 618.313 416.625 617.294 406.877C616.824 402.002 617.218 397.081 618.457 392.342C619.737 387.559 622.19 383.171 625.594 379.576C621.507 383.016 618.381 387.456 616.521 392.464C614.639 397.59 613.693 403.012 613.727 408.472" fill="#171717"/>
<path d="M151.549 377.78C149.256 382.837 147.434 388.094 146.105 393.485C144.807 398.964 144.144 404.574 144.129 410.204C144.097 415.92 144.887 421.612 146.473 427.104C148.06 432.743 150.667 438.043 154.164 442.743C156.605 445.835 159.349 448.674 162.356 451.22C165.232 453.72 168.156 456.026 170.989 458.301C173.822 460.576 176.57 462.831 179.022 465.212C181.412 467.419 183.461 469.967 185.104 472.775C186.842 475.385 187.83 478.422 187.96 481.555C187.989 484.865 187.221 488.134 185.722 491.086C182.706 497.472 177.469 503.286 173.539 510.075C169.867 515.423 167.438 521.525 166.429 527.934C165.427 534.33 165.598 540.855 166.936 547.19C169.577 558.601 175.003 569.18 182.73 577.983C185.511 580.538 188.493 582.866 191.647 584.945C194.766 586.953 198.021 588.742 201.388 590.299C207.238 594.911 213.553 598.899 220.231 602.2C224.8 603.924 229.487 605.234 234.172 606.508C238.88 607.675 243.607 608.759 248.361 609.618C257.861 611.418 267.412 612.652 276.922 613.891C264.755 611.227 252.522 608.497 240.711 604.731C228.934 600.931 217.511 596.131 207.632 589.438C206.66 588.961 205.771 588.352 204.832 587.817C203.917 587.252 202.962 586.744 202.079 586.133C200.323 584.91 198.47 583.756 196.836 582.453C193.491 579.856 190.412 576.933 187.645 573.728C182.061 567.32 177.764 559.895 174.99 551.86C172.979 546.581 171.836 541.012 171.607 535.368C171.197 526.899 173.506 518.521 178.196 511.457C179.772 509.038 181.573 506.664 183.396 504.233C185.219 501.802 187.083 499.305 188.757 496.597C190.518 493.849 191.877 490.864 192.792 487.731C193.822 483.517 193.606 479.094 192.17 475.001C190.694 471.139 188.37 467.657 185.37 464.812C179.637 459.161 172.852 455.137 166.438 450.434C163.669 447.769 161.124 444.881 158.828 441.8C156.617 438.73 154.836 435.373 153.533 431.822C151.024 424.862 150.035 417.445 150.633 410.071C150.471 407.1 150.509 404.121 150.744 401.155C150.998 398.169 151.446 395.203 152.085 392.276C153.42 386.342 155.33 380.553 157.79 374.991C162.677 363.744 169.29 353.2 175.9 342.71C167.725 352.81 159.509 362.963 152.951 374.603" fill="#171717"/>
<path d="M384.261 77.7854C384.665 81.2418 385.376 84.6553 386.387 87.9854C387.423 91.2937 388.693 94.5245 390.187 97.6534C393.272 103.87 396.921 109.535 400.299 115.283C405.068 122.996 409.526 130.889 411.167 139.391C413.562 148.043 412.3 157.557 409.082 166.391C405.81 173.37 401.929 180.045 397.482 186.34C393.652 192.258 389.707 198.183 386.36 204.519C384.635 208.846 383.323 213.327 382.441 217.9C380.475 222.173 379.22 226.738 378.726 231.414C378.785 234.526 379.18 237.623 379.902 240.65C380.667 243.684 381.804 246.611 383.288 249.365C386.257 255.051 391.195 259.461 397.179 261.771C393.485 260.053 390.286 257.428 387.879 254.14C385.583 250.987 383.913 247.422 382.958 243.64C381.077 236.335 381.429 228.635 383.967 221.531C386.556 211.049 392.499 201.524 398.602 192.103C402.758 185.639 406.521 178.929 409.87 172.011C413.099 164.982 415.559 157.383 415.894 149.511C415.866 144.433 414.944 139.4 413.17 134.641C411.359 130.026 409.066 125.614 406.329 121.48C402.479 112.78 397.415 104.439 393.829 95.8044C390.07 89.1919 387.684 81.8893 386.813 74.3334C386.414 70.5526 386.697 66.7311 387.649 63.0504C388.642 59.3386 390.528 55.9259 393.142 53.1094C389.979 55.7945 387.564 59.2522 386.133 63.1464C384.688 67.1345 383.977 71.351 384.033 75.5924" fill="#171717"/>
<path d="M225.487 210.143C226.341 214.008 227.845 217.699 229.937 221.058C231.937 224.385 234.129 227.516 235.989 230.751C238.645 235.084 240.638 239.787 240.419 244.646C240.567 249.719 238.509 254.828 236.212 259.691C233.897 263.494 231.797 267.424 229.922 271.462C228.341 275.289 227.558 279.398 227.622 283.538C227.962 286.178 228.621 288.767 229.585 291.247C229.968 293.88 230.642 296.463 231.594 298.947C234.84 305.23 240.054 310.277 246.44 313.316C242.544 311.079 239.189 308.011 236.614 304.329C234.106 300.797 232.342 296.792 231.43 292.556C229.495 286.702 229.439 280.389 231.27 274.501C233.617 266.533 239.224 259.454 241.664 250.861C242.35 248.052 242.496 245.138 242.092 242.274C241.629 239.488 240.667 236.809 239.251 234.365C237.394 229.282 234.345 224.607 231.898 219.827C229.396 216.291 227.639 212.284 226.734 208.048C226.298 205.931 226.254 203.752 226.604 201.619C226.97 199.465 227.907 197.448 229.318 195.779C227.599 197.401 226.365 199.469 225.752 201.751C225.135 204.087 224.957 206.517 225.227 208.918" fill="#171717"/>
<path d="M588.523 464.965L572.813 444.892" stroke="#171717" stroke-width="3.709" stroke-linecap="round" stroke-linejoin="round"/>
<path d="M590.189 444.825L572.027 466.781" stroke="#171717" stroke-width="3.709" stroke-linecap="round" stroke-linejoin="round"/>
<path d="M459.29 189.236L446.214 177" stroke="#171717" stroke-width="3.709" stroke-linecap="round" stroke-linejoin="round"/>
<path d="M445.162 191.64C449.286 185.273 453.411 178.907 457.537 172.54" stroke="#171717" stroke-width="3.709" stroke-linecap="round" stroke-linejoin="round"/>
<path d="M169.593 270.337C163.772 268.209 158.432 264.946 153.883 260.737" stroke="#171717" stroke-width="3.709" stroke-linecap="round" stroke-linejoin="round"/>
<path d="M154.072 274.818C157.512 269.258 160.951 263.698 164.389 258.138" stroke="#171717" stroke-width="3.709" stroke-linecap="round" stroke-linejoin="round"/>
<path d="M769.384 358.585C761.942 357.527 754.472 361.871 750.142 368.014C745.812 374.157 744.166 381.808 743.574 389.301C742.085 408.817 747.019 428.285 757.622 444.737C761.58 450.837 766.847 456.808 773.963 458.322C781.079 459.836 789.784 454.531 789.15 447.284C788.503 439.904 779.378 436.284 772.027 437.199C757.138 439.059 745.651 452.582 742.236 467.193C738.821 481.804 742.044 497.168 746.922 511.357C751.8 525.546 758.339 539.203 761.845 553.792C765.351 568.381 765.524 584.53 758.125 597.583C750.726 610.636 734.225 619.176 720.145 613.998" stroke="white" stroke-width="3.709" stroke-linecap="round" stroke-linejoin="round"/>
<path d="M109.321 557.441C121.627 555.835 134.114 561.254 143.228 569.678C152.342 578.102 158.48 589.255 163.328 600.678C166.682 608.578 169.541 616.978 169.028 625.547C168.515 634.116 163.95 642.912 156.042 646.247C145.679 650.62 134.054 644.61 124.706 638.356C119.337 634.764 113.46 629.833 113.919 623.39C114.504 615.174 124.833 611.531 133.042 612.209C139.961 612.78 146.654 614.949 152.592 618.545C158.531 622.14 163.555 627.065 167.269 632.931C170.982 638.797 173.284 645.444 173.993 652.351C174.703 659.257 173.8 666.234 171.356 672.732C167.513 682.951 159.949 691.799 158.166 702.571C155.224 720.345 172.458 738.433 190.355 736.355" stroke="#171717" stroke-width="3.709" stroke-linecap="round" stroke-linejoin="round"/>
<path d="M526.481 131.649L516.845 122.962" stroke="white" stroke-width="3.709" stroke-linecap="round" stroke-linejoin="round"/>
<path d="M516.288 132.589C519.482 128.221 522.676 123.852 525.869 119.483" stroke="white" stroke-width="3.709" stroke-linecap="round" stroke-linejoin="round"/>
<path d="M107.626 602.862L98.0264 594.134" stroke="white" stroke-width="3.709" stroke-linecap="round" stroke-linejoin="round"/>
<path d="M96.1455 606.227C100.806 601.213 104.455 595.347 106.893 588.95" stroke="white" stroke-width="3.709" stroke-linecap="round" stroke-linejoin="round"/>
<path d="M731.5 576.012C728.366 573.599 725.233 571.186 722.1 568.772" stroke="white" stroke-width="3.709" stroke-linecap="round" stroke-linejoin="round"/>
<path d="M722.122 578.459L730.876 561.891" stroke="white" stroke-width="3.709" stroke-linecap="round" stroke-linejoin="round"/>
<path d="M723.612 320.431C717.736 317.182 712.742 312.548 709.062 306.931" stroke="#171717" stroke-width="3.709" stroke-linecap="round" stroke-linejoin="round"/>
<path d="M709.037 319.268L721.307 303.599" stroke="#171717" stroke-width="3.709" stroke-linecap="round" stroke-linejoin="round"/>
<path d="M762.553 743.083L754.529 733.627" stroke="#171717" stroke-width="3.709" stroke-linecap="round" stroke-linejoin="round"/>
<path d="M751.731 745.124L764.822 729.414" stroke="#171717" stroke-width="3.709" stroke-linecap="round" stroke-linejoin="round"/>
<path d="M119.263 284.332L127.036 284.965L120.718 289.537L122.519 297.126L116.218 292.531L109.556 296.587L111.979 289.175L106.062 284.093L113.862 284.107L116.866 276.91L119.263 284.332Z" fill="white"/>
<path d="M682.67 262.211L692.689 259.697L686.711 268.121L692.197 276.874L682.338 273.791L675.709 281.713L675.594 271.384L666.012 267.528L675.8 264.228L676.506 253.922L682.67 262.211Z" fill="#171717"/>
<path d="M472.672 130.288L480.631 132.235L473.318 135.93L473.926 144.101L468.151 138.288L460.568 141.39L464.314 134.102L459.019 127.85L467.107 129.159L471.418 122.191L472.672 130.288Z" fill="#171717"/>
<path d="M638.937 396.212L646.896 398.16L639.582 401.854L640.189 410.026L634.416 404.212L626.832 407.315L630.577 400.027L625.283 393.774L633.37 395.084L637.682 388.116L638.937 396.212Z" fill="white"/>
<path d="M92.1442 639.113L100.102 641.06L92.7892 644.756L93.3962 652.926L87.6232 647.113L80.0392 650.216L83.7842 642.929L78.4902 636.675L86.5772 637.984L90.8892 631.017L92.1442 639.113Z" fill="#171717"/>
<g opacity="0.1">
<path d="M292.085 264.294C273.925 270.135 269.834 293.436 270.802 309.894C272.102 331.983 278.102 353.54 284.384 374.669C290.775 396.03 298.273 417.045 306.848 437.627C314.38 455.793 322.073 474.227 332.49 490.973C337.811 499.526 344.201 508.712 352.145 515.03C359.899 521.196 369.211 527.284 379.045 529.272C386.063 530.691 389.08 522.321 383.704 518.22C377.423 513.428 371.483 509.012 366.365 502.906C361.316 497.124 356.616 491.047 352.29 484.706C342.815 470.241 335.69 454.412 328.89 438.56C313.09 401.745 301.373 363.593 289.974 325.252C286.847 314.735 282.739 304.305 283.307 293.145C283.781 283.817 288.486 275.424 294.637 268.679C296.312 266.843 294.707 263.448 292.083 264.292L292.085 264.294Z" fill="#171717"/>
</g>
<g opacity="0.1">
<path d="M94.9604 355.741C90.6604 372.724 92.9814 391.274 96.2534 408.284C99.8197 425.968 106.15 442.98 115.011 458.693C131.666 488.769 155.511 514.336 185.278 531.656C193.543 536.427 202.2 540.483 211.154 543.779C220.361 547.217 228.898 550.449 238.677 547.607C239.38 547.399 240.018 547.014 240.528 546.488C241.039 545.963 241.405 545.314 241.592 544.606C241.779 543.897 241.781 543.152 241.596 542.443C241.412 541.734 241.048 541.084 240.539 540.556C234.899 534.566 228.284 532.124 220.853 528.933C213.852 525.791 207.027 522.27 200.409 518.383C187.061 510.763 174.623 501.648 163.335 491.215C151.787 480.837 141.718 468.924 133.408 455.808C124.711 441.7 117.769 426.581 112.739 410.788C109.739 401.956 107.399 392.913 105.739 383.733C104.218 374.382 103.2 365.022 101.29 355.741C100.629 352.528 95.7314 352.701 94.9624 355.741H94.9604Z" fill="#171717"/>
</g>
<g opacity="0.1">
<path d="M435.808 281.227C436.971 288.686 440.263 296.532 442.793 303.645C445.323 310.758 448.214 317.715 451.126 324.668C457.126 338.992 463.782 353.077 470.473 367.088C476.992 380.741 483.73 394.286 490.687 407.723C494.149 414.41 497.38 421.363 501.651 427.576C504.007 431.003 506.357 434.231 508.443 437.837C510.543 441.471 512.23 444.152 515.823 446.469C519.29 448.705 524.076 445.782 524.005 441.774C523.878 434.643 518.937 427.903 516.295 421.402C513.413 414.31 509.654 407.671 506.129 400.885C499.009 387.18 492.117 373.36 485.452 359.424C478.922 345.771 472.769 331.959 466.522 318.177C463.41 311.31 460.31 304.429 457.008 297.652C453.687 290.838 450.586 283.023 446.261 276.82C442.433 271.33 434.81 274.82 435.808 281.227V281.227Z" fill="#171717"/>
</g>
<g opacity="0.1">
<path d="M236.623 359.514C225.772 370.336 218.88 384.391 214.574 399C209.774 415.292 211.866 433.309 215.283 449.649C218.962 467.24 225.318 483.981 231.708 500.723C237.708 516.442 243.763 532.14 249.872 547.815C274.394 610.308 301.117 672.441 336.072 729.909C345.61 745.591 355.767 760.901 366.638 775.692C372.338 783.445 378.178 791.092 384.426 798.413C390.738 805.808 396.809 813.813 405.135 818.955C412.415 823.455 419.39 814.798 416.102 807.988C412.552 800.633 406.712 794.736 401.674 788.336C396.958 782.345 392.311 776.296 387.733 770.189C378.057 757.327 368.916 744.086 360.31 730.465C343.253 703.332 327.799 675.223 314.027 646.284C286.036 588.144 262.265 527.576 240.084 467.007C233.608 449.322 229.197 431.685 229.056 412.807C228.928 395.544 231.547 379.507 242.924 365.815C246.524 361.48 240.76 355.395 236.624 359.515L236.623 359.514Z" fill="#171717"/>
</g>
</g>
</g>
<defs>
<clipPath id="clip0_46_7729">
<rect width="960" height="960" fill="white"/>
</clipPath>
<clipPath id="clip1_46_7729">
<rect width="818" height="883" fill="white" transform="translate(71 39)"/>
</clipPath>
</defs>
</svg>